<?xml version="1.0"?>
<svg xmlns="http://www.w3.org/2000/svg" xmlns:xlink="http://www.w3.org/1999/xlink" xmlns:svgjs="http://svgjs.com/svgjs" version="1.1" width="512" height="512" x="0" y="0" viewBox="0 0 464 464" style="enable-background:new 0 0 512 512" xml:space="preserve" class=""><g><path xmlns="http://www.w3.org/2000/svg" d="m456 368-72 16-56-320 72-16zm0 0" fill="#ffd523" data-original="#fdbd40" style="" class=""/><path xmlns="http://www.w3.org/2000/svg" d="m160 0h96v384h-96zm0 0" fill="#2c2e43" data-original="#238892" style="" class=""/><path xmlns="http://www.w3.org/2000/svg" d="m0 112h80v272h-80zm0 0" fill="#2c2e43" data-original="#238892" style="" class=""/><path xmlns="http://www.w3.org/2000/svg" d="m0 384h464v48h-464zm0 0" fill="#b2b1b9" data-original="#d3843d" style="" class=""/><path xmlns="http://www.w3.org/2000/svg" d="m256 112h80v272h-80zm0 0" fill="#595260" data-original="#e9686a" style="" class=""/><path xmlns="http://www.w3.org/2000/svg" d="m80 56h80v328h-80zm0 0" fill="#ffd523" data-original="#fdbd40" style="" class=""/><path xmlns="http://www.w3.org/2000/svg" d="m160 64h96v256h-96zm0 0" fill="#9db0bb" data-original="#cfdfe8" style="" class=""/><path xmlns="http://www.w3.org/2000/svg" d="m80 320h80v32h-80zm0 0" fill="#595260" data-original="#e9686a" style="" class=""/><g xmlns="http://www.w3.org/2000/svg" fill="#fdbd40"><path d="m40 280c-4.417969 0-8-3.582031-8-8v-120c0-4.417969 3.582031-8 8-8s8 3.582031 8 8v120c0 4.417969-3.582031 8-8 8zm0 0" fill="#ffd523" data-original="#fdbd40" style="" class=""/><path d="m40 328c-4.417969 0-8-3.582031-8-8v-16c0-4.417969 3.582031-8 8-8s8 3.582031 8 8v16c0 4.417969-3.582031 8-8 8zm0 0" fill="#ffd523" data-original="#fdbd40" style="" class=""/><path d="m256 168h80v72h-80zm0 0" fill="#ffd523" data-original="#fdbd40" style="" class=""/></g><path xmlns="http://www.w3.org/2000/svg" d="m224 104h-32c-4.417969 0-8-3.582031-8-8s3.582031-8 8-8h32c4.417969 0 8 3.582031 8 8s-3.582031 8-8 8zm0 0" fill="#2c2e43" data-original="#238892" style="" class=""/><path xmlns="http://www.w3.org/2000/svg" d="m224 296h-32c-4.417969 0-8-3.582031-8-8s3.582031-8 8-8h32c4.417969 0 8 3.582031 8 8s-3.582031 8-8 8zm0 0" fill="#2c2e43" data-original="#238892" style="" class=""/></g></svg>
